<svg width="24" height="24" viewBox="0 0 24 24" fill="none" xmlns="http://www.w3.org/2000/svg">
<path fill-rule="evenodd" clip-rule="evenodd" d="M7.22703 3.22703C8.4929 1.96116 10.2098 1.25 12 1.25C13.7902 1.25 15.5071 1.96116 16.773 3.22703C18.0388 4.4929 18.75 6.20979 18.75 8C18.75 11.3895 19.4753 13.5135 20.1584 14.7659C20.501 15.394 20.8371 15.8104 21.0757 16.0623C21.1952 16.1885 21.2908 16.2739 21.3512 16.3242C21.3815 16.3494 21.4029 16.3658 21.4142 16.3742L21.4228 16.3805C21.693 16.5649 21.8128 16.9036 21.7178 17.2173C21.622 17.5337 21.3305 17.75 21 17.75H3C2.6695 17.75 2.37795 17.5337 2.28218 17.2173C2.18719 16.9036 2.30697 16.5649 2.5772 16.3805L2.58583 16.3742C2.5971 16.3658 2.61855 16.3494 2.64877 16.3242C2.70919 16.2739 2.80477 16.1885 2.92428 16.0623C3.16292 15.8104 3.49898 15.394 3.84158 14.7659C4.5247 13.5135 5.25 11.3895 5.25 8C5.25 6.20979 5.96116 4.4929 7.22703 3.22703ZM4.68982 16.25H19.3102C19.1567 16.0265 18.9986 15.7721 18.8416 15.4841C18.0247 13.9865 17.25 11.6105 17.25 8C17.25 6.60761 16.6969 5.27225 15.7123 4.28769C14.7277 3.30312 13.3924 2.75 12 2.75C10.6076 2.75 9.27225 3.30312 8.28769 4.28769C7.30312 5.27225 6.75 6.60761 6.75 8C6.75 11.6105 5.9753 13.9865 5.15842 15.4841C5.00134 15.7721 4.8433 16.0265 4.68982 16.25ZM9.89367 20.3512C10.252 20.1434 10.7109 20.2654 10.9187 20.6237C11.0286 20.8131 11.1863 20.9703 11.3761 21.0796C11.5659 21.1889 11.781 21.2464 12 21.2464C12.219 21.2464 12.4341 21.1889 12.6239 21.0796C12.8136 20.9703 12.9714 20.8131 13.0812 20.6237C13.2891 20.2654 13.748 20.1434 14.1063 20.3512C14.4646 20.5591 14.5866 21.018 14.3787 21.3763C14.137 21.793 13.79 22.139 13.3726 22.3794C12.9551 22.6199 12.4818 22.7464 12 22.7464C11.5182 22.7464 11.0449 22.6199 10.6274 22.3794C10.21 22.139 9.86299 21.793 9.62125 21.3763C9.41341 21.018 9.53537 20.5591 9.89367 20.3512Z" fill="#2F363D"/>
</svg>
