<svg width="40" height="40" viewBox="0 0 40 40" fill="none" xmlns="http://www.w3.org/2000/svg">
<g filter="url(#filter0_d_317:270)">
<path d="M10.0666 10.2666L10.9332 9.38331C11.8999 8.41665 13.4999 8.41665 14.4999 9.44998L14.5332 9.49998C15.3499 10.3333 16.4332 10.7333 17.6166 10.85C19.2332 11 20.7999 11.8666 21.8332 13.4333C22.9666 15.2333 22.9499 17.6333 21.7666 19.4166C21.3202 20.1224 20.72 20.7181 20.0109 21.1591C19.3018 21.6001 18.502 21.875 17.6716 21.9632C16.8412 22.0514 16.0016 21.9506 15.2157 21.6683C14.4297 21.386 13.7178 20.9297 13.1332 20.3333C12.1999 19.4166 11.6666 18.2333 11.5332 17C11.3999 15.7833 10.9166 14.6333 10.0666 13.7833C9.0999 12.8333 9.0999 11.2333 10.0666 10.2666ZM17.0666 23.6666C15.1166 23.6666 13.2999 22.9166 11.9499 21.5333C10.7832 20.3333 10.0499 18.8333 9.86657 17.2C9.81657 16.7 9.66657 16.05 9.26657 15.45C8.26657 16.8333 7.66657 18.5 7.66657 20.3333C7.66657 23.0666 8.9999 25.4833 11.0499 27H32.6666V25.3333C32.6666 19.3333 28.6832 14.25 23.2332 12.5833C24.7166 14.9166 24.6832 18.0333 23.1666 20.3333C21.8332 22.4166 19.5332 23.6666 17.0666 23.6666ZM25.6332 9.59998H27.7499C29.1999 9.59998 30.4666 10.6166 30.4666 12.4333V13.6666H32.5499V12C32.5499 9.49998 30.3332 7.59998 27.7499 7.59998H25.6332C24.2499 7.59998 23.0666 6.23331 23.0666 4.83331C23.0666 3.43331 24.2499 2.39998 25.6332 2.39998V0.333313C23.0666 0.333313 20.9999 2.39998 20.9999 4.96665C20.9999 7.53331 23.0666 9.59998 25.6332 9.59998ZM8.4999 9.58331C8.5999 9.41665 8.73324 9.24998 8.88324 9.08331L9.7499 8.21665C9.8999 8.06665 10.0666 7.94998 10.2332 7.83331L7.88324 5.44998C8.11657 4.99998 8.03324 4.41665 7.66657 4.03331C7.4279 3.80099 7.10798 3.67099 6.7749 3.67099C6.44183 3.67099 6.1219 3.80099 5.88324 4.03331C5.6499 4.26665 5.53324 4.54998 5.51657 4.84998C5.21657 4.86665 4.93324 4.98331 4.6999 5.21665C4.21657 5.69998 4.21657 6.49998 4.6999 6.99998C5.08324 7.36665 5.6499 7.44998 6.11657 7.21665L8.4999 9.58331ZM31.6499 4.31665C32.4999 3.46665 33.0332 2.31665 33.0332 1.03331H30.9499C30.9499 2.41665 29.7832 3.58331 28.3999 3.58331V5.64998C31.4999 5.64998 33.9332 8.18331 33.9332 11.2833V15.3333H35.9999V11.2833C36.0082 9.82949 35.6039 8.40315 34.8339 7.16996C34.0639 5.93677 32.9598 4.94736 31.6499 4.31665ZM9.33324 32H32.6666C34.5166 32 35.9999 30.5166 35.9999 28.6666H5.9999C5.9999 29.5507 6.35109 30.3985 6.97621 31.0237C7.60133 31.6488 8.44918 32 9.33324 32Z" fill="white"/>
</g>
<defs>
<filter id="filter0_d_317:270" x="0.337402" y="0.333313" width="39.6626" height="39.6667" filterUnits="userSpaceOnUse" color-interpolation-filters="sRGB">
<feFlood flood-opacity="0" result="BackgroundImageFix"/>
<feColorMatrix in="SourceAlpha" type="matrix" values="0 0 0 0 0 0 0 0 0 0 0 0 0 0 0 0 0 0 127 0" result="hardAlpha"/>
<feOffset dy="4"/>
<feGaussianBlur stdDeviation="2"/>
<feComposite in2="hardAlpha" operator="out"/>
<feColorMatrix type="matrix" values="0 0 0 0 0 0 0 0 0 0 0 0 0 0 0 0 0 0 0.25 0"/>
<feBlend mode="normal" in2="BackgroundImageFix" result="effect1_dropShadow_317:270"/>
<feBlend mode="normal" in="SourceGraphic" in2="effect1_dropShadow_317:270" result="shape"/>
</filter>
</defs>
</svg>
