<svg width="22" height="22" viewBox="0 0 22 22" fill="none" xmlns="http://www.w3.org/2000/svg">
<path fill-rule="evenodd" clip-rule="evenodd" d="M6.5 1.75002C6.03587 1.75002 5.59075 1.93439 5.26256 2.26258C4.93437 2.59077 4.75 3.03589 4.75 3.50002C4.75 3.96414 4.93437 4.40926 5.26256 4.73745C5.58824 5.06313 6.02906 5.24718 6.48934 5.24998H10.01C9.87158 4.84301 9.67385 4.34966 9.40533 3.86144C8.76174 2.69127 7.83293 1.75002 6.5 1.75002ZM10.25 6.74998V10.25H1.75V6.74998H6.48547C6.49031 6.75 6.49516 6.75002 6.5 6.75002L10.25 6.74998ZM3.76135 5.24998C3.43002 4.73144 3.25 4.12501 3.25 3.50002C3.25 2.63806 3.59241 1.81141 4.2019 1.20192C4.8114 0.592425 5.63805 0.250015 6.5 0.250015C8.66707 0.250015 9.98826 1.80875 10.7197 3.13856C10.8221 3.32477 10.9153 3.51045 11 3.69219C11.0847 3.51045 11.1779 3.32477 11.2803 3.13856C12.0117 1.80875 13.3329 0.250015 15.5 0.250015C16.3619 0.250015 17.1886 0.592425 17.7981 1.20192C18.4076 1.81141 18.75 2.63806 18.75 3.50002C18.75 4.12501 18.57 4.73144 18.2386 5.24998H21C21.4142 5.24998 21.75 5.58577 21.75 5.99998V11C21.75 11.4142 21.4142 11.75 21 11.75H19.75V21C19.75 21.4142 19.4142 21.75 19 21.75H2.99997C2.58575 21.75 2.24997 21.4142 2.24997 21V11.75H1C0.585786 11.75 0.25 11.4142 0.25 11V5.99998C0.25 5.58577 0.585786 5.24998 1 5.24998H3.76135ZM3.74997 11.75V20.25H10.25V11.75H3.74997ZM11.75 11.75V20.25H18.25V11.75H11.75ZM11.75 6.74998V10.25H20.25V6.74998H15.5145C15.5097 6.75 15.5048 6.75002 15.5 6.75002L11.75 6.74998ZM15.5106 5.24998C15.9709 5.24718 16.4117 5.06313 16.7374 4.73745C17.0656 4.40926 17.25 3.96414 17.25 3.50002C17.25 3.03589 17.0656 2.59077 16.7374 2.26258C16.4092 1.93439 15.9641 1.75002 15.5 1.75002C14.1671 1.75002 13.2382 2.69127 12.5946 3.86144C12.3261 4.34966 12.1284 4.84301 11.99 5.24998H15.5106Z" fill="#2F363D"/>
</svg>
