<svg width="20" height="22" viewBox="0 0 20 22" fill="none" xmlns="http://www.w3.org/2000/svg">
<path fill-rule="evenodd" clip-rule="evenodd" d="M9.53954 0.408002C9.81038 0.197354 10.1896 0.197354 10.4605 0.408002L19.4605 7.408C19.6431 7.55009 19.75 7.76857 19.75 8.00002V19C19.75 19.7294 19.4603 20.4288 18.9445 20.9446C18.4288 21.4603 17.7293 21.75 17 21.75H3C2.27065 21.75 1.57118 21.4603 1.05546 20.9446C0.539731 20.4288 0.25 19.7294 0.25 19V8.00002C0.25 7.76857 0.356855 7.55009 0.539545 7.408L9.53954 0.408002ZM1.75 8.36683V19C1.75 19.3315 1.8817 19.6495 2.11612 19.8839C2.35054 20.1183 2.66848 20.25 3 20.25H6.25V11C6.25 10.5858 6.58579 10.25 7 10.25H13C13.4142 10.25 13.75 10.5858 13.75 11V20.25H17C17.3315 20.25 17.6495 20.1183 17.8839 19.8839C18.1183 19.6495 18.25 19.3315 18.25 19V8.36683L10 1.95016L1.75 8.36683ZM12.25 20.25V11.75H7.75V20.25H12.25Z" fill="#2F363D"/>
</svg>
