<svg width="24" height="24" viewBox="0 0 24 24" fill="none" xmlns="http://www.w3.org/2000/svg">
<path fill-rule="evenodd" clip-rule="evenodd" d="M11.3861 1.21066C11.7472 0.929801 12.2528 0.929801 12.6139 1.21066L21.6139 8.21066C21.8575 8.40012 22 8.69143 22 9.00002V20C22 20.7957 21.6839 21.5587 21.1213 22.1213C20.5587 22.6839 19.7957 23 19 23H5C4.20435 23 3.44129 22.6839 2.87868 22.1213C2.31607 21.5587 2 20.7957 2 20V9.00002C2 8.69143 2.14247 8.40012 2.38606 8.21066L11.3861 1.21066ZM4 9.4891V20C4 20.2652 4.10536 20.5196 4.29289 20.7071C4.48043 20.8947 4.73478 21 5 21H8V12C8 11.4477 8.44772 11 9 11H15C15.5523 11 16 11.4477 16 12V21H19C19.2652 21 19.5196 20.8947 19.7071 20.7071C19.8946 20.5196 20 20.2652 20 20V9.4891L12 3.26688L4 9.4891ZM14 21V13H10V21H14Z" fill="#2F363D"/>
</svg>
