<svg width="54" height="54" viewBox="0 0 54 54" fill="none" xmlns="http://www.w3.org/2000/svg">
<path d="M38.88 19.62C39.196 19.9364 39.3735 20.3653 39.3735 20.8125C39.3735 21.2597 39.196 21.6886 38.88 22.005L34.38 26.505C34.0636 26.821 33.6347 26.9985 33.1875 26.9985C32.7403 26.9985 32.3114 26.821 31.995 26.505L29.745 24.255C29.5792 24.1005 29.4462 23.9142 29.354 23.7072C29.2618 23.5002 29.2122 23.2768 29.2082 23.0502C29.2042 22.8236 29.2458 22.5985 29.3307 22.3884C29.4156 22.1783 29.5419 21.9874 29.7022 21.8272C29.8624 21.6669 30.0533 21.5406 30.2634 21.4557C30.4735 21.3709 30.6986 21.3292 30.9252 21.3332C31.1518 21.3372 31.3752 21.3868 31.5822 21.479C31.7892 21.5712 31.9755 21.7042 32.13 21.87L33.1875 22.9275L36.495 19.62C36.8114 19.304 37.2403 19.1265 37.6875 19.1265C38.1347 19.1265 38.5636 19.304 38.88 19.62ZM38.88 34.38C39.0458 34.2255 39.1788 34.0392 39.271 33.8322C39.3632 33.6252 39.4128 33.4018 39.4168 33.1752C39.4208 32.9486 39.3791 32.7235 39.2943 32.5134C39.2094 32.3033 39.0831 32.1124 38.9228 31.9522C38.7626 31.7919 38.5717 31.6656 38.3616 31.5807C38.1515 31.4959 37.9264 31.4542 37.6998 31.4582C37.4732 31.4622 37.2498 31.5118 37.0428 31.604C36.8358 31.6962 36.6495 31.8292 36.495 31.995L33.1875 35.3025L32.13 34.245C31.9755 34.0792 31.7892 33.9462 31.5822 33.854C31.3752 33.7618 31.1518 33.7122 30.9252 33.7082C30.6986 33.7042 30.4735 33.7459 30.2634 33.8307C30.0533 33.9156 29.8624 34.0419 29.7022 34.2022C29.5419 34.3624 29.4156 34.5533 29.3307 34.7634C29.2458 34.9735 29.2042 35.1986 29.2082 35.4252C29.2122 35.6518 29.2618 35.8752 29.354 36.0822C29.4462 36.2892 29.5792 36.4755 29.745 36.63L31.995 38.88C32.3114 39.196 32.7403 39.3735 33.1875 39.3735C33.6347 39.3735 34.0636 39.196 34.38 38.88L38.88 34.38ZM15.75 23.0625C15.75 22.6149 15.9278 22.1857 16.2443 21.8693C16.5607 21.5528 16.9899 21.375 17.4375 21.375H25.3125C25.7601 21.375 26.1893 21.5528 26.5057 21.8693C26.8222 22.1857 27 22.6149 27 23.0625C27 23.5101 26.8222 23.9393 26.5057 24.2557C26.1893 24.5722 25.7601 24.75 25.3125 24.75H17.4375C16.9899 24.75 16.5607 24.5722 16.2443 24.2557C15.9278 23.9393 15.75 23.5101 15.75 23.0625ZM17.4375 33.75C16.9899 33.75 16.5607 33.9278 16.2443 34.2443C15.9278 34.5607 15.75 34.99 15.75 35.4375C15.75 35.8851 15.9278 36.3143 16.2443 36.6307C16.5607 36.9472 16.9899 37.125 17.4375 37.125H25.3125C25.7601 37.125 26.1893 36.9472 26.5057 36.6307C26.8222 36.3143 27 35.8851 27 35.4375C27 34.99 26.8222 34.5607 26.5057 34.2443C26.1893 33.9278 25.7601 33.75 25.3125 33.75H17.4375ZM35.9685 9C35.8301 7.76248 35.2405 6.61936 34.3124 5.78919C33.3843 4.95902 32.1827 4.50004 30.9375 4.5H23.0625C21.8173 4.50004 20.6157 4.95902 19.6876 5.78919C18.7595 6.61936 18.1699 7.76248 18.0315 9H14.0625C12.7198 9 11.4322 9.53337 10.4828 10.4828C9.53337 11.4322 9 12.7198 9 14.0625V44.4375C9 45.7802 9.53337 47.0678 10.4828 48.0172C11.4322 48.9666 12.7198 49.5 14.0625 49.5H39.9375C40.6023 49.5 41.2606 49.3691 41.8748 49.1146C42.489 48.8602 43.0471 48.4873 43.5172 48.0172C43.9873 47.5471 44.3602 46.9891 44.6146 46.3748C44.8691 45.7606 45 45.1023 45 44.4375V14.0625C45 13.3977 44.8691 12.7394 44.6146 12.1252C44.3602 11.511 43.9873 10.9529 43.5172 10.4828C43.0471 10.0127 42.489 9.63977 41.8748 9.38536C41.2606 9.13095 40.6023 9 39.9375 9H35.9685ZM23.0625 14.625H30.9375C32.6925 14.625 34.2382 13.7318 35.1472 12.375H39.9375C40.385 12.375 40.8143 12.5528 41.1307 12.8693C41.4472 13.1857 41.625 13.6149 41.625 14.0625V44.4375C41.625 44.8851 41.4472 45.3143 41.1307 45.6307C40.8143 45.9472 40.385 46.125 39.9375 46.125H14.0625C13.6149 46.125 13.1857 45.9472 12.8693 45.6307C12.5528 45.3143 12.375 44.8851 12.375 44.4375V14.0625C12.375 13.6149 12.5528 13.1857 12.8693 12.8693C13.1857 12.5528 13.6149 12.375 14.0625 12.375H18.8527C19.7617 13.7318 21.3075 14.625 23.0625 14.625ZM23.0625 7.875H30.9375C31.385 7.875 31.8143 8.05279 32.1307 8.36926C32.4472 8.68573 32.625 9.11495 32.625 9.5625C32.625 10.0101 32.4472 10.4393 32.1307 10.7557C31.8143 11.0722 31.385 11.25 30.9375 11.25H23.0625C22.6149 11.25 22.1857 11.0722 21.8693 10.7557C21.5528 10.4393 21.375 10.0101 21.375 9.5625C21.375 9.11495 21.5528 8.68573 21.8693 8.36926C22.1857 8.05279 22.6149 7.875 23.0625 7.875Z" fill="white"/>
</svg>
