<svg width="20" height="20" viewBox="0 0 20 20" fill="none" xmlns="http://www.w3.org/2000/svg">
<path fill-rule="evenodd" clip-rule="evenodd" d="M9 1.75C4.99594 1.75 1.75 4.99594 1.75 9C1.75 13.0041 4.99594 16.25 9 16.25C10.9607 16.25 12.7396 15.4717 14.0446 14.2072C14.067 14.1766 14.092 14.1473 14.1197 14.1197C14.1473 14.092 14.1766 14.067 14.2072 14.0446C15.4717 12.7396 16.25 10.9607 16.25 9C16.25 4.99594 13.0041 1.75 9 1.75ZM15.6949 14.6342C16.9773 13.112 17.75 11.1462 17.75 9C17.75 4.16751 13.8325 0.25 9 0.25C4.16751 0.25 0.25 4.16751 0.25 9C0.25 13.8325 4.16751 17.75 9 17.75C11.1462 17.75 13.112 16.9773 14.6342 15.6949L18.4697 19.5303C18.7626 19.8232 19.2375 19.8232 19.5303 19.5303C19.8232 19.2375 19.8232 18.7626 19.5303 18.4697L15.6949 14.6342Z" fill="#2F363D"/>
</svg>
