<svg width="44" height="44" viewBox="0 0 44 44" fill="none" xmlns="http://www.w3.org/2000/svg">
<path d="M31.1153 11.4602C30.6944 11.226 30.2315 11.0771 29.753 11.0219C29.2745 10.9668 28.7898 11.0065 28.3267 11.1388C27.8635 11.2711 27.431 11.4934 27.0539 11.7929C26.6767 12.0925 26.3623 12.4635 26.1286 12.8847L19.3215 25.135L15.4256 21.2392C15.0874 20.889 14.6828 20.6097 14.2355 20.4175C13.7881 20.2253 13.307 20.1242 12.8201 20.12C12.3333 20.1157 11.8504 20.2085 11.3998 20.3929C10.9492 20.5772 10.5398 20.8495 10.1955 21.1938C9.85125 21.538 9.57899 21.9474 9.39463 22.398C9.21026 22.8487 9.11749 23.3315 9.12172 23.8183C9.12595 24.3052 9.2271 24.7863 9.41927 25.2337C9.61143 25.681 9.89077 26.0856 10.241 26.4239L17.5743 33.7572C18.2673 34.452 19.2023 34.8334 20.1666 34.8334L20.6745 34.7967C21.2365 34.7181 21.7726 34.5101 22.2405 34.1891C22.7085 33.8681 23.0956 33.4429 23.3713 32.9469L32.538 16.4469C32.772 16.026 32.9209 15.5632 32.976 15.0849C33.0312 14.6065 32.9916 14.1219 32.8595 13.6589C32.7274 13.1958 32.5053 12.7633 32.2061 12.3861C31.9068 12.0088 31.5362 11.6942 31.1153 11.4602Z" fill="white"/>
</svg>
