<svg width="24" height="24" viewBox="0 0 24 24" fill="none" xmlns="http://www.w3.org/2000/svg">
<path fill-rule="evenodd" clip-rule="evenodd" d="M12 4C10.3431 4 9 5.34315 9 7C9 8.65685 10.3431 10 12 10C13.6569 10 15 8.65685 15 7C15 5.34315 13.6569 4 12 4ZM7 7C7 4.23858 9.23858 2 12 2C14.7614 2 17 4.23858 17 7C17 9.76142 14.7614 12 12 12C9.23858 12 7 9.76142 7 7ZM4.46444 15.4645C5.40212 14.5268 6.67389 14 7.99997 14H16C17.3261 14 18.5978 14.5268 19.5355 15.4645C20.4732 16.4021 21 17.6739 21 19V21C21 21.5523 20.5523 22 20 22C19.4477 22 19 21.5523 19 21V19C19 18.2044 18.6839 17.4413 18.1213 16.8787C17.5587 16.3161 16.7956 16 16 16H7.99997C7.20432 16 6.44126 16.3161 5.87865 16.8787C5.31604 17.4413 4.99997 18.2043 4.99997 19V21C4.99997 21.5523 4.55225 22 3.99997 22C3.44768 22 2.99997 21.5523 2.99997 21V19C2.99997 17.6739 3.52675 16.4021 4.46444 15.4645Z" fill="#2F363D"/>
</svg>
