<svg width="18" height="20" viewBox="0 0 18 20" fill="none" xmlns="http://www.w3.org/2000/svg">
<path fill-rule="evenodd" clip-rule="evenodd" d="M9 1.75C7.20508 1.75 5.75 3.20507 5.75 5C5.75 6.79493 7.20508 8.25 9 8.25C10.7949 8.25 12.25 6.79493 12.25 5C12.25 3.20507 10.7949 1.75 9 1.75ZM4.25 5C4.25 2.37665 6.37665 0.25 9 0.25C11.6234 0.25 13.75 2.37665 13.75 5C13.75 7.62335 11.6234 9.75 9 9.75C6.37665 9.75 4.25 7.62335 4.25 5ZM1.64121 13.6412C2.53201 12.7504 3.74019 12.25 4.99997 12.25H13C14.2597 12.25 15.4679 12.7504 16.3587 13.6412C17.2495 14.532 17.75 15.7402 17.75 17V19C17.75 19.4142 17.4142 19.75 17 19.75C16.5858 19.75 16.25 19.4142 16.25 19V17C16.25 16.138 15.9076 15.3114 15.2981 14.7019C14.6886 14.0924 13.8619 13.75 13 13.75H4.99997C4.13802 13.75 3.31137 14.0924 2.70187 14.7019C2.09238 15.3114 1.74997 16.138 1.74997 17V19C1.74997 19.4142 1.41418 19.75 0.999969 19.75C0.585756 19.75 0.249969 19.4142 0.249969 19V17C0.249969 15.7402 0.750414 14.532 1.64121 13.6412Z" fill="#2F363D"/>
</svg>
